<svg id="레이어_1" data-name="레이어 1" xmlns="http://www.w3.org/2000/svg" viewBox="0 0 249.45 155.91"><defs><style>.cls-1{fill:#00358e;}</style></defs><title>OR-H-BG대지 111</title><path class="cls-1" d="M94.93,142.9c-49.28,0-80.25-31.5-80.25-64.94S45.66,13,94.93,13c49.45,0,80.25,31.5,80.25,64.94S144.39,142.9,94.93,142.9Zm0-119.5C59.38,23.4,49.53,53.31,49.53,78s9.86,54.56,45.41,54.56c35.73,0,45.41-29.92,45.41-54.56S130.66,23.4,94.93,23.4Z"/><path class="cls-1" d="M155.65,142.9c-49.28,0-80.25-31.5-80.25-64.94S106.37,13,155.65,13c49.45,0,80.25,31.5,80.25,64.94S205.11,142.9,155.65,142.9Zm0-119.5c-35.55,0-45.41,29.92-45.41,54.56s9.86,54.56,45.41,54.56c35.73,0,45.41-29.92,45.41-54.56S191.38,23.4,155.65,23.4Z"/></svg>