<svg xmlns="http://www.w3.org/2000/svg" viewBox="0 0 53.74 9"><defs><style>.cls-1{isolation:isolate;}.cls-2{mix-blend-mode:multiply;}.cls-3{fill:#231815;}</style></defs><title>logo대지 2</title><g class="cls-1"><g id="레이어_1" data-name="레이어 1"><g class="cls-2"><path class="cls-3" d="M3.61,8.44A3.77,3.77,0,0,1,0,4.52,3.77,3.77,0,0,1,3.61.59,3.77,3.77,0,0,1,7.22,4.52,3.77,3.77,0,0,1,3.61,8.44Zm0-6.93c-1.25,0-1.38,1.7-1.38,3s.13,3,1.38,3S5,5.82,5,4.52,4.86,1.51,3.61,1.51Z"/><path class="cls-3" d="M13.9,1.76V9L9.6,3.44V7.28l1,1H7.61l1-1V1.76l-1-1H10.1l2.77,3.76V1.76l-1-1h2.94Z"/><path class="cls-3" d="M15.21,8.23l1-1V1.76l-1-1H21V2.89L19.86,1.72H18.14V3.79h1.14l1-1V5.67l-1-1H18.14V7.31h1.72L21,6.14V8.23Z"/><path class="cls-3" d="M26.88,8.23,25.33,5h-.73v2.3l1,1H21.66l1-1V1.76l-1-1h3.62c1.46,0,3.19.45,3.19,2.09a1.88,1.88,0,0,1-1.31,1.73l1.47,2.66,1,1Zm-1.6-6.51h-.69V4.05h.69a1.07,1.07,0,0,0,1.06-1.17A1.07,1.07,0,0,0,25.28,1.72Z"/><path class="cls-3" d="M32.95,8.44a3.77,3.77,0,0,1-3.61-3.93,3.62,3.62,0,1,1,7.22,0A3.77,3.77,0,0,1,32.95,8.44Zm0-6.93c-1.25,0-1.38,1.7-1.38,3s.13,3,1.38,3,1.38-1.7,1.38-3S34.2,1.51,32.95,1.51Z"/><path class="cls-3" d="M40.67,8.44a3.77,3.77,0,0,1-3.61-3.93,3.62,3.62,0,1,1,7.22,0A3.77,3.77,0,0,1,40.67,8.44Zm0-6.93c-1.25,0-1.37,1.7-1.37,3s.13,3,1.38,3S42,5.82,42,4.52,41.91,1.51,40.67,1.51Z"/><path class="cls-3" d="M49.85,8.23l1-1V2.89L48.7,6.69,46.59,2.88v4.4l1,1H44.6l1-1V1.76l-1-1h3l1.71,3L51,.8h2.74l-1,1V7.28l1,1Z"/></g></g></g></svg>